<?xml version="1.0" encoding="utf-8"?>
<!-- Generator: Adobe Illustrator 23.0.6, SVG Export Plug-In . SVG Version: 6.00 Build 0)  -->
<svg version="1.1" id="Layer_1" xmlns="http://www.w3.org/2000/svg" xmlns:xlink="http://www.w3.org/1999/xlink" x="0px" y="0px"
	 viewBox="0 0 229.73 237.83" style="enable-background:new 0 0 229.73 237.83;" xml:space="preserve">
<style type="text/css">
	.st0{clip-path:url(#SVGID_2_);}
	.st1{clip-path:url(#SVGID_4_);fill:#8B277F;}
	.st2{clip-path:url(#SVGID_6_);}
	.st3{clip-path:url(#SVGID_8_);fill:#8B277F;}
	.st4{clip-path:url(#SVGID_10_);}
	.st5{clip-path:url(#SVGID_12_);fill:#8B277F;}
	.st6{clip-path:url(#SVGID_14_);}
	.st7{clip-path:url(#SVGID_16_);fill:#FFFFFF;}
	.st8{clip-path:url(#SVGID_18_);}
	.st9{clip-path:url(#SVGID_20_);fill:#FFFFFF;}
	.st10{clip-path:url(#SVGID_24_);}
	.st11{clip-path:url(#SVGID_26_);fill:#515050;}
	.st12{fill:none;stroke:#282828;stroke-width:2;stroke-miterlimit:10;}
	.st13{fill:none;stroke:#282828;stroke-width:2;stroke-linecap:round;stroke-miterlimit:10;}
	.st14{opacity:0.7676;enable-background:new    ;}
	.st15{clip-path:url(#SVGID_28_);}
	.st16{clip-path:url(#SVGID_30_);}
	.st17{clip-path:url(#SVGID_32_);fill:#8A267E;}
	.st18{clip-path:url(#SVGID_34_);}
	.st19{clip-path:url(#SVGID_36_);fill:#8A267E;}
	.st20{clip-path:url(#SVGID_38_);}
	.st21{clip-path:url(#SVGID_40_);fill:#8A267E;}
	.st22{clip-path:url(#SVGID_42_);}
	.st23{clip-path:url(#SVGID_44_);fill:#FFFFFF;}
	.st24{clip-path:url(#SVGID_46_);}
	.st25{clip-path:url(#SVGID_48_);enable-background:new    ;}
	.st26{clip-path:url(#SVGID_50_);}
	.st27{clip-path:url(#SVGID_52_);}
	.st28{clip-path:url(#SVGID_54_);fill:#8A267E;}
	.st29{clip-path:url(#SVGID_56_);}
	.st30{clip-path:url(#SVGID_58_);fill:#8A267E;}
	.st31{clip-path:url(#SVGID_60_);}
	.st32{clip-path:url(#SVGID_62_);fill:#8A267E;}
	.st33{clip-path:url(#SVGID_64_);}
	.st34{clip-path:url(#SVGID_66_);fill:#8A267E;}
	.st35{clip-path:url(#SVGID_68_);}
	.st36{clip-path:url(#SVGID_70_);fill:#ED2024;}
	.st37{clip-path:url(#SVGID_72_);}
	.st38{clip-path:url(#SVGID_74_);fill:#FFFFFF;}
</style>
<g>
	<defs>
		<path id="SVGID_1_" d="M-114.22-181.34c2.11,0,3.84,1.73,3.84,3.84v7.69c0,2.11-1.73,3.84-3.84,3.84h-5.77V-116
			c0,2.11-1.73,3.84-3.84,3.84h-3.84c-2.11,0-3.84-1.73-3.84-3.84v-49.97h-5.77c-2.11,0-3.84-1.73-3.84-3.84v-7.69
			c0-2.11,1.73-3.84,3.84-3.84h5.77v-49.97c0-2.11,1.73-3.84,3.84-3.84h3.84c2.11,0,3.84,1.73,3.84,3.84v49.97H-114.22z
			 M-191.09-212.09c2.11,0,3.84,1.73,3.84,3.84v7.69c0,2.11-1.73,3.84-3.84,3.84h-5.77V-116c0,2.11-1.73,3.84-3.84,3.84h-3.84
			c-2.11,0-3.84-1.73-3.84-3.84v-80.72h-5.77c-2.11,0-3.84-1.73-3.84-3.84v-7.69c0-2.11,1.73-3.84,3.84-3.84h5.77v-19.22
			c0-2.11,1.73-3.84,3.84-3.84h3.84c2.11,0,3.84,1.73,3.84,3.84v19.22H-191.09z M-152.66-150.59c2.11,0,3.84,1.73,3.84,3.84v7.69
			c0,2.11-1.73,3.84-3.84,3.84h-5.77V-116c0,2.11-1.73,3.84-3.84,3.84h-3.84c-2.11,0-3.84-1.73-3.84-3.84v-19.22h-5.77
			c-2.11,0-3.84-1.73-3.84-3.84v-7.69c0-2.11,1.73-3.84,3.84-3.84h5.77v-80.72c0-2.11,1.73-3.84,3.84-3.84h3.84
			c2.11,0,3.84,1.73,3.84,3.84v80.72H-152.66z"/>
	</defs>
	<clipPath id="SVGID_2_">
		<use xlink:href="#SVGID_1_"  style="overflow:visible;"/>
	</clipPath>
	<g class="st0">
		<defs>
			<rect id="SVGID_3_" x="-420" y="-1612.16" width="1440" height="4433"/>
		</defs>
		<clipPath id="SVGID_4_">
			<use xlink:href="#SVGID_3_"  style="overflow:visible;"/>
		</clipPath>
	</g>
</g>
<g>
	<defs>
		<path id="SVGID_5_" d="M179.1-196.72c2.04,0,3.84,1.63,3.84,3.84v60.13c0,3.15-1.9,5.96-4.83,7.13l-36.49,12.71
			c-3.12,1.01-6.49,0.98-9.61-0.05l-41.32-14.58l-40.84,15.09c-0.48,0.19-0.96,0.29-1.44,0.29c-2.04,0-3.84-1.63-3.84-3.84v-60.13
			c0-3.15,1.92-5.98,4.83-7.13l32-11.17c1.01,3.41,2.47,6.99,4.4,10.69L56.1-173.42v46.37l30.61-11.29l0.14-0.05v-43.29
			c3.17,5.77,7.18,11.7,11.53,17.49v27.15l30.75,10.86v-19.55c0.46-0.38,0.91-0.77,1.32-1.23c3.51-3.96,6.92-8.05,10.21-12.2v34.4
			l30.75-10.69v-46.37l-19.63,7.26c3.36-5.24,6.25-10.43,8.22-15.33l17.66-6.53C178.14-196.62,178.62-196.72,179.1-196.72z
			 M121.44-223.63c-12.3,0-22.29,9.42-22.29,20.97c0,5.14,7.64,19,22.29,36.66c14.65-17.66,22.29-31.52,22.29-36.66
			C143.74-214.21,133.74-223.63,121.44-223.63z M121.44-150.59c-1.2,0-2.4-0.48-3.24-1.47c-8.48-9.61-30.58-36.08-30.58-50.59
			c0-17.95,15.13-32.5,33.82-32.5s33.82,14.56,33.82,32.5c0,14.53-22.1,40.98-30.58,50.59
			C123.84-151.07,122.64-150.59,121.44-150.59z M127.21-204.89c0,3.17-2.57,5.77-5.77,5.77c-3.2,0-5.77-2.59-5.77-5.77
			c0-3.2,2.57-5.77,5.77-5.77C124.64-210.65,127.21-208.08,127.21-204.89z"/>
	</defs>
	<clipPath id="SVGID_6_">
		<use xlink:href="#SVGID_5_"  style="overflow:visible;"/>
	</clipPath>
	<g class="st2">
		<defs>
			<rect id="SVGID_7_" x="-588.43" y="-1612.16" width="1440" height="4433"/>
		</defs>
		<clipPath id="SVGID_8_">
			<use xlink:href="#SVGID_7_"  style="overflow:visible;"/>
		</clipPath>
	</g>
</g>
<g>
	<defs>
		<path id="SVGID_9_" d="M369.45-171.67l29.16,29.16l12.92-12.92c1.83-1.83,4.92-0.53,4.92,2.04v32.67c0,1.59-1.3,2.88-2.88,2.88
			h-32.67c-2.57,0-3.84-3.1-2.04-4.92l12.92-12.92l-29.14-29.19l-29.16,29.16l12.92,12.92c1.83,1.83,0.53,4.92-2.04,4.92H311.7
			c-1.59,0-2.88-1.3-2.88-2.88v-32.67c0-2.57,3.1-3.84,4.92-2.04l12.92,12.92l29.19-29.14l-29.16-29.16l-12.92,12.92
			c-1.83,1.83-4.92,0.55-4.92-2.02v-32.67c0-1.59,1.3-2.88,2.88-2.88h32.67c2.57,0,3.84,3.1,2.04,4.92l-12.92,12.92l29.14,29.16
			l29.16-29.16l-12.92-12.92c-1.83-1.83-0.55-4.92,2.02-4.92h32.67c1.59,0,2.88,1.3,2.88,2.88v32.67c0,2.57-3.1,3.84-4.92,2.04
			l-12.92-12.92L369.45-171.67z"/>
	</defs>
	<clipPath id="SVGID_10_">
		<use xlink:href="#SVGID_9_"  style="overflow:visible;"/>
	</clipPath>
	<g class="st4">
		<defs>
			<rect id="SVGID_11_" x="-754.19" y="-1617.48" width="1440" height="4433"/>
		</defs>
		<clipPath id="SVGID_12_">
			<use xlink:href="#SVGID_11_"  style="overflow:visible;"/>
		</clipPath>
	</g>
</g>
<g>
	<defs>
		<path id="SVGID_13_" d="M-169.84,79.65c-5.62-1.61-10.08-6.22-10.81-12.02c-1.03-8.06,4.79-14.97,12.42-15.87v-4.43
			c0-2.22,1.81-4.03,4.03-4.03h4.03c2.22,0,4.03,1.81,4.03,4.03v4.46c2.87,0.35,5.62,1.31,8.01,2.9c1.56,1.03,1.71,3.3,0.38,4.64
			l-4.41,4.41c-0.93,0.93-2.34,1.06-3.55,0.5c-0.81-0.35-1.69-0.55-2.6-0.55h-8.26c-1.16,0-2.12,0.96-2.12,2.12
			c0,0.93,0.63,1.79,1.54,2.04l12.62,3.6c5.59,1.61,10.08,6.22,10.81,12.02c1.03,8.06-4.79,14.97-12.42,15.87v4.43
			c0,2.22-1.81,4.03-4.03,4.03h-4.03c-2.22,0-4.03-1.81-4.03-4.03V99.3c-2.87-0.35-5.62-1.31-8.01-2.9
			c-1.56-1.03-1.71-3.3-0.38-4.64l4.41-4.41c0.93-0.93,2.34-1.06,3.55-0.5c0.81,0.35,1.69,0.55,2.6,0.55h8.26
			c1.16,0,2.12-0.96,2.12-2.12c0-0.93-0.63-1.79-1.54-2.04L-169.84,79.65z M-95.69,121.9c4.01,3.4,6.22,8.34,6.05,13.5
			c-0.15,5.17-2.65,9.95-6.83,13.1l-25.4,19.12c-4.01,3.02-8.89,4.66-13.91,4.66h-94.94c-2.22,0-4.03-1.81-4.03-4.03v-4.03
			c0-2.22,1.81-4.03,4.03-4.03h94.86c2.44,0,4.81-0.81,6.78-2.27l25.35-19.02c2.57-1.91,2.77-5.59,0.23-7.74
			c-1.99-1.69-5.06-1.56-7.16,0l-15.44,11.62c-1.94,1.46-4.33,2.27-6.78,2.27h-33.89c-1.91,0-3.48-1.56-3.48-3.48v-0.03
			c0-1.91,1.56-3.48,3.48-3.48h15.07c7.61,0,7.31-10.13,0.28-10.13h-36.28c-4.54,0-8.92,1.46-12.45,4.16l-10.41,7.94h-20.16
			c-2.22,0-4.03-1.81-4.03-4.03v-4.03c0-2.22,1.81-4.03,4.03-4.03h16.07l7.13-5.49c5.59-4.26,12.62-6.63,19.78-6.63h36.28
			c9.75,0,17.38,7.51,17.44,17.08h0.83l15.22-11.46C-113.15,117.85-103.53,115.25-95.69,121.9z"/>
	</defs>
	<clipPath id="SVGID_14_">
		<use xlink:href="#SVGID_13_"  style="overflow:visible;"/>
	</clipPath>
	<g class="st6">
		<defs>
			<rect id="SVGID_15_" x="-481.74" y="-1524.83" width="1440" height="3427"/>
		</defs>
		<clipPath id="SVGID_16_">
			<use xlink:href="#SVGID_15_"  style="overflow:visible;"/>
		</clipPath>
	</g>
</g>
<g>
	<defs>
		<path id="SVGID_17_" d="M203.78,104.17c1.25,2.18,0.51,4.93-1.67,6.2l-34.81,20.25c-1.59,4.93-5.52,8.81-10.51,10.31v4.05
			c0,9.74-6.57,18.01-15.49,20.62c-2.63,9.66-11.47,16.77-21.92,16.77H86.6l-14.61,8.47c-2.18,1.25-4.96,0.51-6.2-1.67l-2.27-3.94
			c-1.25-2.18-0.51-4.96,1.67-6.2l17.79-10.28h36.42c5.04,0,9.12-4.08,9.12-9.12v-6.8h6.83c4.33,0,7.87-3.51,7.87-7.87v-16.99h9.06
			c1.25,0,2.27-1.02,2.27-2.27v-9.06c0-1.25-1.02-2.27-2.27-2.27h-29.45v4.53c0,13.28-11.44,23.93-25.01,22.54
			C86,140.25,77.5,129.4,77.5,117.56v-11.95l-9.18,5.55c-2.75,1.64-4.42,4.62-4.42,7.82v17.5l-31.72,18.32
			c-2.18,1.25-4.96,0.51-6.2-1.67l-2.27-3.94c-1.25-2.18-0.51-4.96,1.67-6.2l24.92-14.39v-9.66c0-7.99,4.19-15.38,11.02-19.48
			l16.82-10.08c1.3-5.78,4.79-10.88,9.97-14.1l9.49-5.92c5.04-3.14,10.85-4.81,16.79-4.81h26.25l30.78-17.56
			c2.18-1.25,4.93-0.48,6.17,1.7l2.24,3.94c1.25,2.18,0.48,4.93-1.7,6.17l-33.93,19.31h-29.82c-3.4,0-6.71,0.93-9.6,2.75l-9.46,5.92
			c-2.63,1.64-4.25,4.56-4.25,7.67v24.44c0,4.98,4.05,9.06,9.06,9.06c5.01,0,9.06-4.08,9.06-9.06v-18.12h43.05
			c8.04,0,14.61,6,15.66,13.76l27.39-15.97c2.18-1.25,4.96-0.51,6.2,1.67L203.78,104.17z"/>
	</defs>
	<clipPath id="SVGID_18_">
		<use xlink:href="#SVGID_17_"  style="overflow:visible;"/>
	</clipPath>
	<g class="st8">
		<defs>
			<rect id="SVGID_19_" x="-617.25" y="-1531.7" width="1440" height="3427"/>
		</defs>
		<clipPath id="SVGID_20_">
			<use xlink:href="#SVGID_19_"  style="overflow:visible;"/>
		</clipPath>
		<rect x="18.12" y="41.39" class="st9" width="191.27" height="155.04"/>
	</g>
</g>
<g>
	<defs>
		<polygon id="SVGID_23_" points="626.57,-179.88 640.57,-195.88 612.57,-195.88 		"/>
	</defs>
	<clipPath id="SVGID_22_">
		<use xlink:href="#SVGID_23_"  style="overflow:visible;"/>
	</clipPath>
	<g style="clip-path:url(#SVGID_22_);">
		<defs>
			<rect id="SVGID_25_" x="-588.43" y="-2937.88" width="1440" height="3427"/>
		</defs>
		<clipPath id="SVGID_24_">
			<use xlink:href="#SVGID_25_"  style="overflow:visible;"/>
		</clipPath>
	</g>
</g>
<g>
	<defs>
		<path id="SVGID_67_" d="M417.64,388.57c-1.01-4.53-3.99-8.1-7.76-9.32c-6.89-2.26-34.43-2.26-34.43-2.26s-27.54,0-34.43,2.18
			c-3.7,1.22-6.74,4.88-7.76,9.4c-1.81,8.27-1.81,25.42-1.81,25.42s0,17.24,1.81,25.42c1.02,4.53,3.99,8.1,7.76,9.32
			c6.96,2.26,34.43,2.26,34.43,2.26s27.54,0,34.43-2.18c3.77-1.22,6.74-4.79,7.76-9.31c1.81-8.27,1.81-25.42,1.81-25.42
			S419.53,396.84,417.64,388.57z"/>
	</defs>
	<clipPath id="SVGID_26_">
		<use xlink:href="#SVGID_67_"  style="overflow:visible;"/>
	</clipPath>
	<g style="clip-path:url(#SVGID_26_);">
		<defs>
			<rect id="SVGID_69_" x="-343.54" y="-1246.01" width="1440" height="4156"/>
		</defs>
		<clipPath id="SVGID_28_">
			<use xlink:href="#SVGID_69_"  style="overflow:visible;"/>
		</clipPath>
	</g>
</g>
<g>
	<defs>
		<polygon id="SVGID_71_" points="366.32,429.99 389.57,413.99 366.32,397.99 		"/>
	</defs>
	<clipPath id="SVGID_30_">
		<use xlink:href="#SVGID_71_"  style="overflow:visible;"/>
	</clipPath>
	<g class="st16">
		<defs>
			<rect id="SVGID_73_" x="-343.54" y="-1246.01" width="1440" height="4156"/>
		</defs>
		<clipPath id="SVGID_32_">
			<use xlink:href="#SVGID_73_"  style="overflow:visible;"/>
		</clipPath>
	</g>
</g>
</svg>
