<svg width="14px" height="26px" viewBox="0 0 14 26" version="1.1" xmlns="http://www.w3.org/2000/svg" xmlns:xlink="http://www.w3.org/1999/xlink">
  <g stroke="none" stroke-width="1" fill="none" fill-rule="evenodd">
    <g transform="translate(-415.000000, -5148.000000)" fill="#8B1F7E" fill-rule="nonzero" stroke="#8A1E80">
      <g transform="translate(0.000000, 5110.000000)">
        <g transform="translate(51.000000, 20.000000)">
          <g transform="translate(365.000000, 0.000000)">
            <path d="M12,21.4999471 L12,19.5 C12,19.2959175 11.8758729,19.1118421 11.686401,19.0361401 C11.6258844,19.0117186 11.5624146,19 11.4999292,19 C11.3661457,19 11.2352686,19.0537179 11.1386107,19.1543102 L0.138412454,30.6541233 C-0.0461374847,30.8474798 -0.0461374847,31.1521627 0.138412454,31.3455192 L11.1386107,42.8453323 C11.2802224,42.9927989 11.4970229,43.0406575 11.6864948,42.9635024 C11.8759667,42.8878004 12,42.703725 12,42.4996343 L12,40.4996485 C12,40.3717285 11.9511554,40.2486835 11.8632634,40.1559192 L3.18824434,30.9998213 L11.8632165,21.8437233 C11.9511086,21.750959 12,21.627914 12,21.4999471 Z"></path>
          </g>
        </g>
      </g>
    </g>
  </g>
</svg>
