<svg width="14px" height="26px" viewBox="0 0 14 26" version="1.1" xmlns="http://www.w3.org/2000/svg" xmlns:xlink="http://www.w3.org/1999/xlink">
  <g stroke="none" stroke-width="1" fill="none" fill-rule="evenodd">
    <g transform="translate(-527.000000, -5147.000000)" fill="#8B1F7E" fill-rule="nonzero" stroke="#8B1F7E">
      <g transform="translate(0.000000, 5110.000000)">
        <g transform="translate(51.000000, 20.000000)">
          <g transform="translate(365.000000, 0.000000)">
            <path d="M124,20.4999471 L124,18.5 C124,18.2959175 123.875873,18.1118421 123.686401,18.0361401 C123.625884,18.0117186 123.562415,18 123.499929,18 C123.366146,18 123.235269,18.0537179 123.138611,18.1543102 L112.138412,29.6541233 C111.953863,29.8474798 111.953863,30.1521627 112.138412,30.3455192 L123.138611,41.8453323 C123.280222,41.9927989 123.497023,42.0406575 123.686495,41.9635024 C123.875967,41.8878004 124,41.703725 124,41.4996343 L124,39.4996485 C124,39.3717285 123.951155,39.2486835 123.863263,39.1559192 L115.188244,29.9998213 L123.863216,20.8437233 C123.951109,20.750959 124,20.627914 124,20.4999471 Z" transform="translate(118.000000, 30.000000) scale(-1, 1) translate(-118.000000, -30.000000) "></path>
          </g>
        </g>
      </g>
    </g>
  </g>
</svg>
