<?xml version="1.0" encoding="utf-8"?>
<!-- Generator: Adobe Illustrator 23.0.6, SVG Export Plug-In . SVG Version: 6.00 Build 0)  -->
<svg version="1.1" id="Layer_1" xmlns="http://www.w3.org/2000/svg" xmlns:xlink="http://www.w3.org/1999/xlink" x="0px" y="0px"
	 viewBox="0 0 229.73 237.83" style="enable-background:new 0 0 229.73 237.83;" xml:space="preserve">
<g>
	<path d="M129.35,61.3c1.59,4.77,3.16,9.53,4.75,14.29c2.97,8.88,5.95,17.76,8.92,26.64c0.59,1.77,0.6,1.76,2.51,1.77
		c4.04,0.02,8.08-0.02,12.12,0.08c11.19,0.28,22.37,0.56,33.55,0.98c3.78,0.14,7.55,0.73,11.32,1.1c1.3,0.13,2.07,0.7,2.03,2.11
		c-0.08,3.23,0.04,6.48-0.25,9.69c-0.64,6.92-1.34,13.83-2.3,20.71c-1.09,7.82-2.49,15.6-3.72,23.4c-0.22,1.39-0.91,2.44-2.09,3.04
		c-2.74,1.38-5.46,2.84-8.32,3.9c-10.35,3.81-21.03,6.5-31.77,8.87c-12.96,2.87-25.99,5.42-38.98,8.17
		c-2.34,0.5-4.53-0.09-6.74-0.49c-16.32-2.99-32.58-6.25-48.69-10.25c-8.4-2.09-16.78-4.24-24.82-7.48c-1.4-0.57-2.74-1.3-4.1-1.96
		c-2.01-0.97-3-2.56-3.26-4.78c-0.76-6.58-1.74-13.14-2.4-19.73c-0.76-7.59-1.36-15.2-1.83-22.81c-0.21-3.5,0.07-7.02,0.11-10.53
		c0.01-0.99,0.57-1.46,1.46-1.57c3.45-0.41,6.89-1.02,10.35-1.16c11.22-0.46,22.44-0.77,33.67-1.08c4.71-0.13,9.43-0.15,14.15-0.17
		c0.83,0,1.26-0.2,1.56-1.05c4.87-13.8,9.77-27.58,14.7-41.36c0.3-0.84-0.04-1.21-0.57-1.69c-8.97-7.95-10.09-21.23-2.38-30.38
		c6.01-7.13,13.9-9.62,22.86-7.5c8.87,2.1,14.68,7.89,16.64,16.85c1.86,8.46-0.83,15.67-7.33,21.43
		C130.14,60.65,129.77,60.95,129.35,61.3z M125.98,60.18c0.41-0.28,0.77-0.53,1.13-0.78c6.78-4.64,9.94-13,7.84-20.7
		c-2.7-9.87-12.3-16.01-22.46-14.34c-9.61,1.57-16.7,9.89-16.46,19.6c0.16,6.34,2.98,11.43,8.1,15.17c0.89,0.65,0.99,1.18,0.66,2.14
		c-2.34,6.83-4.62,13.67-6.94,20.51c-2.7,7.97-5.42,15.92-8.1,23.9c-0.29,0.88-0.63,1.27-1.65,1.25c-2.56-0.04-5.11,0.08-7.67,0.14
		c-10.63,0.24-21.26,0.4-31.88,0.76c-5.38,0.18-10.77,0.59-16.13,1.19c-3.67,0.41-3.9-0.04-3.84,4.48
		c0.09,6.03,0.33,12.07,0.94,18.06c0.92,9.01,2.24,17.98,3.33,26.97c0.27,2.19,1.31,3.74,3.32,4.6c2.31,0.99,4.59,2.07,6.97,2.83
		c12.33,3.96,25.04,6.33,37.76,8.59c9.54,1.69,19.12,3.19,28.69,4.73c1.92,0.31,3.91,0.81,5.81,0.61c4.64-0.49,9.25-1.28,13.85-2.06
		c8.93-1.52,17.85-3.04,26.75-4.72c9.48-1.79,18.94-3.72,28.13-6.72c3.2-1.04,6.25-2.56,9.33-3.97c1.09-0.5,1.71-1.49,1.91-2.74
		c1-6.26,2.2-12.5,3.03-18.78c0.94-7.2,1.64-14.44,2.29-21.68c0.24-2.65,0.03-5.34,0.03-8.02c0-1.24-0.73-1.78-1.84-1.92
		c-2.45-0.32-4.9-0.8-7.36-0.91c-11.1-0.47-22.2-0.87-33.3-1.22c-5.51-0.17-11.03-0.18-16.55-0.23c-0.7-0.01-1.06-0.21-1.28-0.9
		C135.61,90.79,130.81,75.54,125.98,60.18z"/>
	<path d="M95.46,105.44c6.39-19.68,12.73-39.2,19-58.53c-0.64-0.82-1.36-1.44-1.7-2.22c-0.66-1.51,0.06-3.11,1.52-3.81
		c1.53-0.75,3.31-0.28,4.22,1.11c0.87,1.31,0.62,3.06-0.73,4.04c-0.7,0.51-0.47,0.96-0.3,1.54c3.67,12.38,7.33,24.77,10.99,37.15
		c1.9,6.42,3.79,12.84,5.69,19.26c0.11,0.37,0.19,0.75,0.34,1.31c-1.59,0-3.03,0.06-4.46-0.04c-0.43-0.03-0.9-0.46-1.21-0.83
		c-0.52-0.64-1.1-0.89-1.94-0.88c-8.39,0.11-16.79,0.18-25.18,0.27c-0.34,0-0.84,0.03-0.99,0.24
		C99.38,105.91,97.45,105.46,95.46,105.44z M128.48,100.68c-4.48-3.69-8.75-7.21-13.06-10.75c-4.14,3.55-8.17,7-12.2,10.46
		c0.04,0.1,0.09,0.2,0.13,0.3C111.63,100.68,119.91,100.68,128.48,100.68z M128.67,97.32c0.06-0.04,0.12-0.09,0.18-0.13
		c-1.63-5.38-3.26-10.76-4.95-16.34c-2.14,2.32-4.13,4.47-6.15,6.66C121.45,90.84,125.06,94.08,128.67,97.32z M102.01,97.15
		c0.06,0.04,0.13,0.09,0.19,0.13c3.59-3.2,7.18-6.4,10.61-9.46c-2.09-2.08-4.08-4.06-6.1-6.07
		C105.17,86.81,103.59,91.98,102.01,97.15z M122.27,78.69c-0.08-0.09-0.16-0.18-0.24-0.27c-4.65,0-9.29,0-14.18,0
		c2.67,2.43,5.15,4.67,7.36,6.69C117.62,82.92,119.94,80.8,122.27,78.69z M115.65,69.13c-2.14,2-4.14,3.88-6.25,5.85
		c3.98,0,7.71,0,11.7,0C119.17,72.92,117.44,71.06,115.65,69.13z M113.3,59.35c1.7,0,3.26,0,4.96,0c-0.79-2.61-1.55-5.11-2.3-7.61
		c-0.09,0.02-0.17,0.03-0.26,0.05C114.91,54.28,114.12,56.77,113.3,59.35z M117.05,67.46c1.5,1.62,2.94,3.19,4.39,4.75
		c0.06-0.03,0.11-0.07,0.17-0.1c-0.72-2.44-1.44-4.89-2.22-7.53C118.53,65.64,117.81,66.53,117.05,67.46z M111.91,64.62
		c-0.77,2.47-1.44,4.66-2.08,6.72c1.41-1.25,2.86-2.52,4.35-3.83C113.38,66.49,112.72,65.66,111.91,64.62z M118.67,62.54
		c-2.05,0-3.87,0-5.89,0c1.05,1.22,1.97,2.29,2.96,3.45C116.73,64.82,117.64,63.75,118.67,62.54z M117.39,43.78
		c-0.06-0.95-0.58-1.46-1.49-1.54c-0.87-0.07-1.73,0.68-1.65,1.49c0.09,0.89,0.64,1.46,1.56,1.48
		C116.73,45.22,117.26,44.69,117.39,43.78z"/>
	<path d="M130.68,140.68c-1.51,0-2.94,0-4.44,0c-0.83-3.08-1.65-6.15-2.49-9.29c-0.89,0-1.75,0-2.76,0c0,3.07,0,6.13,0,9.26
		c-1.4,0-2.66,0-4.03,0c0-8.26,0-16.54,0-24.83c2.87,0,5.71-0.2,8.52,0.06c2.64,0.24,4.28,2.39,4.34,5.07
		c0.03,1.24-0.05,2.48,0.02,3.72c0.11,1.87-0.43,3.44-1.73,4.8c-0.25,0.26-0.25,0.94-0.13,1.37c0.76,2.89,1.59,5.76,2.4,8.64
		C130.48,139.85,130.57,140.23,130.68,140.68z M121.05,119.59c0,2.66,0,5.26,0,7.96c0.54,0,1.01,0,1.48,0c0.4,0,0.8,0.02,1.2-0.03
		c1.22-0.14,2.04-1.02,2.06-2.22c0.02-1.28,0.01-2.56,0-3.83c-0.01-1.16-0.67-1.78-1.77-1.86
		C123.06,119.53,122.1,119.59,121.05,119.59z"/>
	<path d="M150.68,140.7c0-8.41,0-16.67,0-25.26c2.91,0.18,5.8,0.08,8.58,0.6c2.84,0.53,4.39,3,4.39,5.93c0,4.11,0,8.23,0,12.34
		c0,3.36-2.25,6.07-5.57,6.35C155.66,140.86,153.22,140.7,150.68,140.7z M154.83,136.91c1.01,0,1.97,0.1,2.9-0.03
		c1.1-0.15,1.83-0.89,1.84-2.03c0.04-4.39,0.03-8.79,0.01-13.18c-0.01-1.09-0.65-1.86-1.69-2.03c-0.99-0.16-2.03-0.03-3.05-0.03
		C154.83,125.44,154.83,131.14,154.83,136.91z"/>
	<path d="M69.65,128.23c0,2.24,0.02,4.48,0,6.72c-0.04,3.64-2.77,6.08-6.73,6.05c-3.64-0.02-6.31-2.59-6.32-6.08
		c-0.01-4.52-0.01-9.03,0-13.55c0.01-3.37,2.81-6,6.41-6.05c3.61-0.05,6.54,2.49,6.63,5.84C69.7,123.51,69.65,125.87,69.65,128.23z
		 M65.31,128.16c0-2.24,0.01-4.47-0.01-6.71c-0.01-1.43-0.93-2.32-2.31-2.32c-1.37,0-2.33,0.91-2.34,2.31
		c-0.02,4.43-0.02,8.86,0,13.3c0.01,1.46,1.01,2.43,2.39,2.4c1.33-0.02,2.26-0.99,2.26-2.39C65.32,132.55,65.31,130.35,65.31,128.16
		z"/>
	<path d="M187.49,128.27c0,2.16-0.09,4.32,0.02,6.47c0.18,3.36-2.47,5.54-4.87,6.13c-3.52,0.86-7.18-1.13-8.05-4.46
		c-0.12-0.46-0.15-0.95-0.15-1.42c-0.01-4.52-0.02-9.03,0-13.55c0.01-3.49,2.9-6.16,6.59-6.13c3.67,0.03,6.44,2.65,6.45,6.12
		C187.5,123.71,187.49,125.99,187.49,128.27z M183.25,128.2C183.25,128.2,183.25,128.2,183.25,128.2c0-2.24,0.05-4.47-0.02-6.71
		c-0.05-1.52-1.05-2.4-2.45-2.36c-1.39,0.04-2.28,0.97-2.29,2.51c-0.02,4.31,0,8.63-0.01,12.94c0,0.95,0.28,1.72,1.13,2.22
		c1.66,0.97,3.54-0.08,3.62-2.12C183.32,132.52,183.25,130.36,183.25,128.2z"/>
	<path d="M93.59,128.16c0,2.2,0,4.4,0,6.59c0,3.08-1.81,5.44-4.87,6.09c-2.72,0.58-5.16-0.05-7-2.3c-0.87-1.07-1.19-2.31-1.19-3.68
		c0.02-4.36,0.06-8.71-0.01-13.07c-0.05-2.77,1.18-4.7,3.61-5.82c2.61-1.2,5.15-0.89,7.4,0.96c1.44,1.18,2.14,2.71,2.08,4.62
		C93.54,123.76,93.59,125.96,93.59,128.16z M89.27,128.05c0-2.16,0.01-4.31,0-6.47c-0.01-1.47-0.84-2.39-2.19-2.45
		c-1.36-0.06-2.49,0.8-2.51,2.17c-0.06,4.55-0.05,9.11,0.01,13.66c0.02,1.35,1.2,2.25,2.51,2.17c1.29-0.08,2.16-1.01,2.17-2.37
		C89.28,132.53,89.27,130.29,89.27,128.05z"/>
	<path d="M148.08,140.69c-1.5,0-2.85,0-4.34,0c-0.33-1.87-0.67-3.73-1.01-5.66c-1.41,0-2.79,0-4.26,0
		c-0.35,1.88-0.69,3.75-1.04,5.65c-1.42,0-2.76,0-4.3,0c1.55-8.34,3.09-16.61,4.64-24.97c1.77,0,3.45-0.04,5.11,0.04
		c0.28,0.02,0.72,0.57,0.78,0.93c1.25,6.66,2.45,13.33,3.66,20C147.57,137.97,147.81,139.26,148.08,140.69z M142.12,131.23
		c-0.46-2.99-0.91-5.88-1.36-8.77c-0.1,0-0.2,0.01-0.3,0.01c-0.45,2.9-0.89,5.8-1.35,8.76
		C140.19,131.23,141.08,131.23,142.12,131.23z"/>
	<path d="M53.58,124.17c-1.55,0-2.88,0-4.35,0c0-0.95,0.02-1.82,0-2.69c-0.04-1.41-0.98-2.34-2.34-2.35
		c-1.34-0.01-2.32,0.94-2.32,2.33c-0.02,4.47-0.02,8.95,0,13.42c0,1.38,0.89,2.23,2.24,2.26c1.37,0.03,2.36-0.87,2.41-2.24
		c0.03-1.03,0.01-2.07,0.01-3.2c1.41,0,2.75,0,4.09,0c0.65,4.42,0.26,7.74-4.5,9.07c-4.77,1.34-8.63-2.2-8.41-6.3
		c0.22-4.3,0.04-8.63,0.06-12.94c0.01-3.32,2.26-5.67,5.81-6.15c3.12-0.42,6.35,1.56,7.04,4.5
		C53.63,121.21,53.5,122.65,53.58,124.17z"/>
	<path d="M101.12,131.32c0,3.18,0,6.2,0,9.32c-1.4,0-2.7,0-4.09,0c0-8.23,0-16.48,0-24.94c0.88,0,1.78,0,2.68,0
		c1.64,0.01,3.28-0.06,4.91,0.06c3.17,0.24,5.26,2.54,5.29,5.7c0.01,1.08-0.09,2.17,0.02,3.24c0.38,3.64-2.69,6.61-6.58,6.62
		C102.67,131.33,102,131.32,101.12,131.32z M101.19,119.68c0,2.66,0,5.23,0,7.87c0.81,0,1.52,0.02,2.24,0
		c1.52-0.05,2.35-0.82,2.51-2.31c0.05-0.51,0.05-1.03,0.05-1.55c0-3.85-0.51-4.34-4.37-4.1
		C101.49,119.59,101.37,119.63,101.19,119.68z"/>
	<path d="M181.35,148.05c-44.76,0.94-89.53,0.92-134.29,0.01c0-0.12,0-0.23,0-0.35c44.78,0,89.55,0,134.33,0
		C181.37,147.83,181.36,147.94,181.35,148.05z"/>
	<path d="M167.1,115.7c0.48,0,0.92,0,1.35,0c0.83,0,1.66,0,2.57,0c0,8.37,0,16.62,0,24.95c-1.29,0-2.55,0-3.91,0
		C167.1,132.42,167.1,124.17,167.1,115.7z"/>
	<path d="M93.5,163.06c0-0.92,0.07-1.84-0.01-2.76c-0.25-2.92,2.13-3.92,4.09-3.86c2.41,0.07,4.04,1.47,3.89,3.99
		c-0.12,1.95-0.01,3.91-0.03,5.87c-0.02,2.09-1.67,3.47-4.05,3.45c-2.32-0.02-3.86-1.39-3.88-3.46
		C93.49,165.22,93.5,164.14,93.5,163.06C93.5,163.06,93.5,163.06,93.5,163.06z M95.97,163.06c0,1.08,0.02,2.16-0.01,3.24
		c-0.02,0.99,0.56,1.39,1.42,1.4c0.86,0.01,1.46-0.41,1.46-1.37c0.01-2.16,0.01-4.32-0.01-6.48c-0.01-1.01-0.62-1.42-1.56-1.39
		c-0.94,0.03-1.34,0.57-1.31,1.49C95.98,160.98,95.96,162.02,95.97,163.06z"/>
	<path d="M103.58,163.06c0-0.92,0.08-1.84-0.02-2.75c-0.27-2.73,1.85-3.88,3.96-3.85c2.51,0.03,4.11,1.39,4.01,4
		c-0.07,1.91,0.02,3.83-0.02,5.75c-0.04,1.9-1.03,3-3.01,3.46c-1.82,0.41-3.88-0.34-4.6-1.75c-0.21-0.41-0.29-0.91-0.3-1.38
		C103.55,165.37,103.58,164.21,103.58,163.06z M106.04,163.03c0,1.08,0.03,2.16-0.01,3.23c-0.03,0.98,0.48,1.41,1.37,1.43
		c0.88,0.02,1.45-0.41,1.45-1.36c0.01-2.2,0.01-4.39,0-6.59c-0.01-0.98-0.62-1.32-1.5-1.29c-0.85,0.02-1.33,0.43-1.31,1.34
		C106.06,160.88,106.04,161.96,106.04,163.03z"/>
	<path d="M117.45,166.34c0.75-0.06,1.46-0.11,2.19-0.17c0.14,0.35,0.17,0.77,0.38,0.91c0.42,0.28,0.96,0.6,1.41,0.56
		c0.4-0.04,1.04-0.51,1.08-0.85c0.14-1.18,0.13-2.39,0.02-3.58c-0.03-0.34-0.55-0.79-0.93-0.9c-0.33-0.1-1.06,0.12-1.13,0.35
		c-0.49,1.62-1.67,0.99-2.77,1.01c0-2.36,0-4.65,0-7.01c2.38,0,4.72,0,7.16,0c0,0.57,0,1.14,0,1.88c-1.53,0-3.06,0-4.64,0
		c0,0.92,0,1.66,0,2.5c0.32-0.11,0.6-0.23,0.89-0.31c2.29-0.63,3.91,0.55,3.97,2.9c0.03,1.08,0.06,2.16-0.03,3.23
		c-0.15,1.85-1.96,3.04-4.27,2.9C118.78,169.64,117.13,168.08,117.45,166.34z"/>
	<path d="M138.11,166.45c0.46-1.88,0.92-3.75,1.39-5.68c0.75,0,1.45,0,2.24,0c0,2.93,0,5.81,0,8.77c-0.51,0-0.98,0-1.56,0
		c0-1.51,0-3.01,0-4.5c-0.08-0.01-0.16-0.02-0.24-0.03c-0.33,1.21-0.62,2.43-1.02,3.61c-0.13,0.39-0.53,0.84-0.9,0.96
		c-0.75,0.24-0.87-0.42-1.03-0.97c-0.33-1.18-0.71-2.34-1.28-3.5c0,1.43,0,2.87,0,4.4c-0.63,0-1.12,0-1.71,0c0-2.85,0-5.74,0-8.69
		c0.14-0.03,0.29-0.09,0.43-0.09c1.94-0.08,1.94-0.08,2.42,1.81c0.33,1.31,0.67,2.61,1,3.92
		C137.94,166.45,138.02,166.45,138.11,166.45z"/>
	<path d="M106.52,30.49c-3.6,3.16-5.66,7.03-6.02,11.76c-0.36,4.67,0.99,8.81,3.93,12.47c-1.06,0.5-1.77,0.3-2.45-0.59
		c-5.3-6.86-4.74-16.39,1.35-22.51C104.16,30.78,104.98,29.93,106.52,30.49z"/>
	<path d="M127.09,54.9c6.17-7.58,5.15-18.35-2.01-24.46c1.04-0.24,1.83-0.09,2.61,0.63c6.47,5.95,7.37,15.71,2.11,22.8
		C129.1,54.82,128.35,55.24,127.09,54.9z"/>
	<path d="M91.36,169.55c-0.91,0-1.65,0-2.53,0c0-3.26,0-6.5,0-9.9c-0.55,0-0.99,0.07-1.39-0.02c-0.28-0.06-0.71-0.33-0.71-0.51
		c-0.01-0.31,0.19-0.73,0.44-0.91c0.73-0.52,1.49-1.03,2.31-1.39c0.51-0.23,1.13-0.19,1.89-0.3c0,2.29,0,4.43,0,6.56
		C91.36,165.17,91.36,167.28,91.36,169.55z"/>
	<path d="M123.87,52.33c4.73-8.04,4.41-12.55-1.28-18.49c1.08-0.33,1.27-0.3,2.09,0.41c5.12,4.37,5.81,11.85,1.62,17.11
		C125.65,52.17,124.97,52.57,123.87,52.33z"/>
	<path d="M107.73,52.23c-1.1,0.33-1.73-0.03-2.33-0.75c-4.32-5.16-3.65-12.95,1.56-17.26c0.49-0.41,1.23-0.51,1.98-0.59
		c-2.67,2.49-4.23,5.47-4.51,9.02C104.15,46.24,105.28,49.41,107.73,52.23z"/>
	<path d="M72.26,126.39c1.95,0,3.88,0,5.89,0c0,1.2,0,2.37,0,3.64c-1.92,0-3.85,0-5.89,0C72.26,128.85,72.26,127.65,72.26,126.39z"
		/>
	<path d="M132.47,160.82c0,0.41,0,0.76,0,1.24c-0.99,0-1.97,0-3.03,0c0,0.82,0,1.52,0,2.37c0.68,0.03,1.38,0.07,2.18,0.11
		c0.02,0.4,0.04,0.78,0.07,1.26c-0.77,0.05-1.47,0.1-2.29,0.16c0,1.16,0,2.3,0,3.55c-0.6,0-1.09,0-1.66,0c0-2.86,0-5.72,0-8.69
		C129.26,160.82,130.79,160.82,132.47,160.82z"/>
	<path d="M120.32,37.4c1.26-0.39,2.01,0.12,2.69,1.06c2.12,2.96,2.26,6.84,0.31,9.88c-0.58,0.9-1.24,1.43-2.44,1.04
		C123.99,45.28,123.92,41.3,120.32,37.4z"/>
	<path d="M110.6,49.23c-1.08,0.41-1.75,0.05-2.33-0.86c-1.93-3.03-1.79-7.06,0.37-9.99c0.66-0.9,1.4-1.36,2.6-1
		C107.77,41.16,107.53,45.12,110.6,49.23z"/>
	<path d="M115.61,167.72c0,0.58,0,1.13,0,1.78c-0.74,0-1.47,0-2.32,0c0-0.54,0-1.11,0-1.78
		C113.99,167.72,114.73,167.72,115.61,167.72z"/>
</g>
</svg>
