<svg width="53px" height="52px" viewBox="0 0 53 52" version="1.1" xmlns="http://www.w3.org/2000/svg" xmlns:xlink="http://www.w3.org/1999/xlink">
  <g stroke="none" stroke-width="1" fill="none" fill-rule="evenodd">
    <g transform="translate(-27.000000, -517.000000)">
      <circle fill="#5D5D5D" cx="53.5" cy="543" r="26"></circle>
      <g transform="translate(44.500000, 531.000000)" fill="#FFFFFF" fill-rule="nonzero" stroke="#EEE8E8">
        <path d="M12,2.49994714 L12,0.5 C12,0.295917467 11.8758729,0.111842084 11.686401,0.0361400867 C11.6258844,0.0117185754 11.5624146,0 11.4999292,0 C11.3661457,0 11.2352686,0.0537179498 11.1386107,0.154310201 L0.138412454,11.6541233 C-0.0461374847,11.8474798 -0.0461374847,12.1521627 0.138412454,12.3455192 L11.1386107,23.8453323 C11.2802224,23.9927989 11.4970229,24.0406575 11.6864948,23.9635024 C11.8759667,23.8878004 12,23.703725 12,23.4996343 L12,21.4996485 C12,21.3717285 11.9511554,21.2486835 11.8632634,21.1559192 L3.18824434,11.9998213 L11.8632165,2.84372327 C11.9511086,2.75095902 12,2.62791398 12,2.49994714 Z"></path>
      </g>
    </g>
  </g>
</svg>
