<svg width="52px" height="52px" viewBox="0 0 52 52" version="1.1" xmlns="http://www.w3.org/2000/svg" xmlns:xlink="http://www.w3.org/1999/xlink">
  <g stroke="none" stroke-width="1" fill="none" fill-rule="evenodd">
    <g transform="translate(-1359.000000, -517.000000)">
      <circle fill="#5D5D5D" transform="translate(1385.000000, 543.000000) scale(-1, 1) translate(-1385.000000, -543.000000) " cx="1385" cy="543" r="26"></circle>
      <path d="M1391,533.499947 L1391,531.5 C1391,531.295917 1390.87587,531.111842 1390.6864,531.03614 C1390.62588,531.011719 1390.56241,531 1390.49993,531 C1390.36615,531 1390.23527,531.053718 1390.13861,531.15431 L1379.13841,542.654123 C1378.95386,542.84748 1378.95386,543.152163 1379.13841,543.345519 L1390.13861,554.845332 C1390.28022,554.992799 1390.49702,555.040658 1390.68649,554.963502 C1390.87597,554.8878 1391,554.703725 1391,554.499634 L1391,552.499648 C1391,552.371729 1390.95116,552.248683 1390.86326,552.155919 L1382.18824,542.999821 L1390.86322,533.843723 C1390.95111,533.750959 1391,533.627914 1391,533.499947 Z" stroke="#EEE8E8" fill="#FFFFFF" fill-rule="nonzero" transform="translate(1385.000000, 543.000000) scale(-1, 1) translate(-1385.000000, -543.000000) "></path>
    </g>
  </g>
</svg>