<svg width="33px" height="35px" viewBox="0 0 33 35" version="1.1" xmlns="http://www.w3.org/2000/svg" xmlns:xlink="http://www.w3.org/1999/xlink">
  <g stroke="none" stroke-width="1" fill="none" fill-rule="evenodd">
    <g transform="translate(-1357.000000, -957.000000)" fill="#8B1F7E" fill-rule="nonzero" stroke="#8B1F7E">
      <g transform="translate(0.000000, 924.000000)">
        <g>
          <g>
            <g transform="translate(1358.000000, 34.000000)">
              <path d="M25.1140969,21.2005814 C23.2226872,21.2005814 21.5361233,22.1050664 20.4572687,23.502907 L11.4235683,18.4391611 C11.6352423,17.8293189 11.7513216,17.1715116 11.7513216,16.4931478 C11.7513216,15.8079319 11.6352423,15.1569767 11.4167401,14.5402824 L20.4436123,9.4833887 C21.5156388,10.8880814 23.2090308,11.7994186 25.1072687,11.7994186 C28.3438326,11.7994186 30.9863436,9.15448505 30.9863436,5.8997093 C30.9863436,2.64493355 28.3506608,0 25.1072687,0 C21.8638767,0 19.2281938,2.64493355 19.2281938,5.8997093 C19.2281938,6.58492525 19.3442731,7.24273256 19.5627753,7.85257475 L10.5427313,12.9094684 C9.47070485,11.4979236 7.77731278,10.5934385 5.87907489,10.5934385 C2.64251101,10.5934385 0,13.2383721 0,16.4931478 C0,19.7479236 2.64251101,22.3928571 5.88590308,22.3928571 C7.78414097,22.3928571 9.47753304,21.4815199 10.5563877,20.0699751 L19.5832599,25.1337209 C19.3647577,25.7504153 19.2418502,26.4150748 19.2418502,27.1002907 C19.2418502,30.3482143 21.877533,33 25.1209251,33 C28.3643172,33 31,30.3550664 31,27.1002907 C31,23.845515 28.357489,21.2005814 25.1140969,21.2005814 Z M25.1140969,1.85693522 C27.3400881,1.85693522 29.1495595,3.67275748 29.1495595,5.90656146 C29.1495595,8.14036545 27.3400881,9.95618771 25.1140969,9.95618771 C22.8881057,9.95618771 21.0786344,8.14036545 21.0786344,5.90656146 C21.0786344,3.67275748 22.8949339,1.85693522 25.1140969,1.85693522 Z M5.88590308,20.5427741 C3.65991189,20.5427741 1.85044053,18.7269518 1.85044053,16.4931478 C1.85044053,14.2593439 3.65991189,12.4435216 5.88590308,12.4435216 C8.11189427,12.4435216 9.92136564,14.2593439 9.92136564,16.4931478 C9.92136564,18.7269518 8.10506608,20.5427741 5.88590308,20.5427741 Z M25.1140969,31.1430648 C22.8881057,31.1430648 21.0786344,29.3272425 21.0786344,27.0934385 C21.0786344,24.8596346 22.8881057,23.0438123 25.1140969,23.0438123 C27.3400881,23.0438123 29.1495595,24.8596346 29.1495595,27.0934385 C29.1495595,29.3272425 27.3400881,31.1430648 25.1140969,31.1430648 Z"></path>
            </g>
          </g>
        </g>
      </g>
    </g>
  </g>
</svg>
